#!OML:ASF H:\Male1\Project 1\Capture day 1\Session 1\Male1.ASF
:FULLY-SPECIFIED
:DEGREES
475
root 34.5033 14.662 2.13319 183.011 8.324 -175.282
lowerback 24.2114 -0.80283 -1.71095
upperback 10.5603 0.821272 -1.99163
thorax -1.81936 1.36111 -1.40257
lowerneck -4.30935 4.52253 4.90597
upperneck -6.5393 5.92644 -6.51789
head -0.96521 3.06233 -2.88601
rclavicle -2.78299e-014 9.54166e-015
rhumerus -4.64841 -8.99482 -50.4767
rradius 119.843
rwrist -17.0804
rhand -39.1782 -1.79018
rfingers 7.12502
rthumb -12.1755 -31.4158
lclavicle -2.78299e-014 9.54166e-015
lhumerus -0.0821985 10.4701 36.4514
lradius 116.102
lwrist -9.90114
lhand -37.8539 19.8918
lfingers 7.12502
lthumb -10.8984 49.5889
rfemur -30.3627 1.90385 9.54575
rtibia 49.8522
rfoot -18.1558 -19.5363
rtoes -32.5247
lfemur -27.0079 -9.62332 -9.67078
ltibia 52.2564
lfoot -26.7153 12.7348
ltoes -13.4008
476
root 34.6441 14.6039 2.14424 182.879 8.4957 -175.133
lowerback 24.3977 -0.862419 -1.41109
upperback 10.6066 0.825387 -1.91729
thorax -1.86094 1.37735 -1.49838
lowerneck -4.34649 4.583 5.0101
upperneck -6.76832 6.00021 -6.87338
head -1.01366 3.11003 -3.02792
rclavicle -5.56597e-015 2.46493e-014
rhumerus -4.25782 -9.06714 -50.5291
rradius 119.943
rwrist -16.9613
rhand -39.133 -1.68644
rfingers 7.12502
rthumb -12.1319 -31.3147
lclavicle -5.56597e-015 2.46493e-014
lhumerus -0.325614 10.5277 36.6827
lradius 116.134
lwrist -9.93784
lhand -37.7857 19.7572
lfingers 7.12502
lthumb -10.8325 49.4578
rfemur -29.7418 2.60758 8.30198
rtibia 48.4321
rfoot -18.163 -19.474
rtoes -32.106
lfemur -27.1896 -9.38984 -8.92491
ltibia 53.0399
lfoot -26.6867 13.2074
ltoes -15.9271
477
root 34.7912 14.5433 2.15646 182.766 8.71792 -175.043
lowerback 24.5599 -0.912165 -1.17059
upperback 10.6603 0.831437 -1.87539
thorax -1.88132 1.3942 -1.59501
lowerneck -4.38648 4.67101 5.166
upperneck -6.98511 6.10758 -7.24994
head -1.05308 3.17366 -3.18639
rclavicle 0 1.43125e-014
rhumerus -3.84815 -9.13387 -50.6384
rradius 120.049
rwrist -16.8122
rhand -39.0766 -1.56908
rfingers 7.12502
rthumb -12.0775 -31.2005
lclavicle 0 1.43125e-014
lhumerus -0.556909 10.6721 36.9235
lradius 116.146
lwrist -9.9733
lhand -37.7355 19.5058
lfingers 7.12502
lthumb -10.7842 49.209
rfemur -29.2516 3.06851 7.28284
rtibia 47.1154
rfoot -18.147 -19.3102
rtoes -31.6521
lfemur -27.3705 -9.11642 -8.20702
ltibia 53.8176
lfoot -26.6635 13.6836
ltoes -18.3289
478
root 34.9452 14.4816 2.17 182.669 8.98008 -175.049
lowerback 24.6999 -0.949293 -1.03453
upperback 10.7164 0.830821 -1.86921
thorax -1.88729 1.40566 -1.66829
lowerneck -4.42176 4.77703 5.33413
upperneck -7.20586 6.23867 -7.60974
head -1.09269 3.24909 -3.34223
rclavicle -2.22639e-014 -1.19271e-014
rhumerus -3.43087 -9.16584 -50.7906
rradius 120.176
rwrist -16.6547
rhand -39.019 -1.49542
rfingers 7.12502
rthumb -12.022 -31.1301
lclavicle -2.22639e-014 -1.19271e-014
lhumerus -0.797636 10.8978 37.1752
lradius 116.137
lwrist -10.011
lhand -37.7039 19.2176
lfingers 7.12502
lthumb -10.7536 48.9223
rfemur -28.9278 3.19623 6.49286
rtibia 46.0261
rfoot -18.0709 -19.1126
rtoes -31.2717
lfemur -27.5295 -8.86872 -7.5411
ltibia 54.5567
lfoot -26.7702 13.9577
ltoes -19.7565
479
root 35.1072 14.4191 2.18542 182.579 9.26041 -175.158
lowerback 24.8297 -0.974682 -1.01624
upperback 10.7709 0.818433 -1.8899
thorax -1.88928 1.40832 -1.7001
lowerneck -4.39535 4.89078 5.43934
upperneck -7.47573 6.38476 -7.90613
head -1.16143 3.33466 -3.46868
rclavicle -1.35174e-014 0
rhumerus -3.0271 -9.13868 -50.949
rradius 120.343
rwrist -16.5216
rhand -38.9819 -1.50963
rfingers 7.12502
rthumb -11.9862 -31.1464
lclavicle -1.35174e-014 0
lhumerus -1.06574 11.1921 37.4345
lradius 116.113
lwrist -10.0574
lhand -37.6919 19.0182
lfingers 7.12502
lthumb -10.7421 48.7235
rfemur -28.7993 2.92745 5.95312
rtibia 45.2895
rfoot -17.9158 -18.9299
rtoes -30.9351
lfemur -27.6532 -8.68398 -6.93606
ltibia 55.2273
lfoot -26.9858 14.0787
ltoes -20.4225
